<?xml version="1.0" encoding="UTF-8" standalone="no"?>
<!-- Created with Inkscape (http://www.inkscape.org/) -->

<svg
   xmlns:dc="http://purl.org/dc/elements/1.1/"
   xmlns:cc="http://creativecommons.org/ns#"
   xmlns:rdf="http://www.w3.org/1999/02/22-rdf-syntax-ns#"
   xmlns:svg="http://www.w3.org/2000/svg"
   xmlns="http://www.w3.org/2000/svg"
   xmlns:sodipodi="http://sodipodi.sourceforge.net/DTD/sodipodi-0.dtd"
   xmlns:inkscape="http://www.inkscape.org/namespaces/inkscape"
   width="210mm"
   height="297mm"
   viewBox="0 0 744.09448819 1052.3622047"
   id="svg2"
   version="1.1"
   inkscape:version="0.91 r13725"
   sodipodi:docname="meerkat.svg">
  <defs
     id="defs4" />
  <sodipodi:namedview
     id="base"
     pagecolor="#ffffff"
     bordercolor="#666666"
     borderopacity="1.0"
     inkscape:pageopacity="0.0"
     inkscape:pageshadow="2"
     inkscape:zoom="0.7"
     inkscape:cx="1192.0558"
     inkscape:cy="278.39344"
     inkscape:document-units="px"
     inkscape:current-layer="layer1"
     showgrid="false"
     inkscape:window-width="1680"
     inkscape:window-height="1001"
     inkscape:window-x="0"
     inkscape:window-y="0"
     inkscape:window-maximized="1" />
  <metadata
     id="metadata7">
    <rdf:RDF>
      <cc:Work
         rdf:about="">
        <dc:format>image/svg+xml</dc:format>
        <dc:type
           rdf:resource="http://purl.org/dc/dcmitype/StillImage" />
        <dc:title></dc:title>
      </cc:Work>
    </rdf:RDF>
  </metadata>
  <g
     inkscape:label="Layer 1"
     inkscape:groupmode="layer"
     id="layer1">
    <path
       style="fill:#cc792a;fill-opacity:1;fill-rule:evenodd;stroke:none;stroke-width:1px;stroke-linecap:butt;stroke-linejoin:miter;stroke-opacity:1"
       d="m 710.38515,652.84687 c -12.26084,75.63942 -9.61346,152.70706 -7.57615,222.23356 18.11827,0.51061 24.34059,16.16153 27.7792,35.35534 l -82.83251,-1.51523 4.54569,-134.35029 z"
       id="path3471"
       inkscape:connector-curvature="0"
       sodipodi:nodetypes="cccccc"
       inkscape:export-xdpi="33.76038"
       inkscape:export-ydpi="33.76038" />
    <path
       style="fill:#763b0f;fill-opacity:1;fill-rule:evenodd;stroke:none;stroke-width:1px;stroke-linecap:butt;stroke-linejoin:miter;stroke-opacity:1"
       d="m 742.52966,533.14607 c 0.42014,13.91716 -1.00531,26.60392 -9.09137,34.85027 -0.72481,-9.88892 -0.67338,-21.71841 0.50508,-36.3655 z"
       id="path3432-6"
       inkscape:connector-curvature="0"
       sodipodi:nodetypes="cccc"
       inkscape:export-xdpi="33.76038"
       inkscape:export-ydpi="33.76038" />
    <path
       style="fill:#763b0f;fill-opacity:1;fill-rule:evenodd;stroke:none;stroke-width:1px;stroke-linecap:butt;stroke-linejoin:miter;stroke-opacity:1"
       d="m 754.49394,533.32464 c 0.42014,13.91716 -1.00531,26.60392 -9.09137,34.85027 -0.72481,-9.88892 -0.67338,-21.71841 0.50508,-36.3655 z"
       id="path3432-66"
       inkscape:connector-curvature="0"
       sodipodi:nodetypes="cccc"
       inkscape:export-xdpi="33.76038"
       inkscape:export-ydpi="33.76038" />
    <path
       style="fill:#cc792a;fill-opacity:1;fill-rule:evenodd;stroke:none;stroke-width:1px;stroke-linecap:butt;stroke-linejoin:miter;stroke-opacity:1"
       d="m 719.9816,373.53969 c 10.89334,25.95527 32.70919,46.94875 44.44671,71.21576 6.50468,64.11923 -4.7588,100.67813 -27.27412,98.99495 l -39.39595,-93.94419 z"
       id="path3469"
       inkscape:connector-curvature="0"
       sodipodi:nodetypes="ccccc"
       inkscape:export-xdpi="33.76038"
       inkscape:export-ydpi="33.76038" />
    <path
       style="fill:#efcfa0;fill-opacity:1;fill-rule:evenodd;stroke:none;stroke-width:1px;stroke-linecap:butt;stroke-linejoin:miter;stroke-opacity:1"
       d="m 681.5958,256.362 c -17.20197,12.21507 7.68156,54.60766 7.68156,54.60766 115.8221,182.30467 0.0293,382.25636 9.99611,380.26301 C 605.01869,653.36275 633.63482,571.2593 601.79375,510.92044 L 600.7836,247.27062 Z"
       id="path3467"
       inkscape:connector-curvature="0"
       sodipodi:nodetypes="cccccc"
       inkscape:export-xdpi="33.76038"
       inkscape:export-ydpi="33.76038" />
    <path
       style="fill:#763b0f;fill-opacity:1;fill-rule:evenodd;stroke:none;stroke-width:1px;stroke-linecap:butt;stroke-linejoin:miter;stroke-opacity:1"
       d="m 681.09072,546.78085 c 0.42014,13.91716 -1.00531,26.60392 -9.09137,34.85027 -0.72481,-9.88892 -0.67338,-21.71841 0.50508,-36.3655 z"
       id="path3432"
       inkscape:connector-curvature="0"
       sodipodi:nodetypes="cccc"
       inkscape:export-xdpi="33.76038"
       inkscape:export-ydpi="33.76038" />
    <path
       style="fill:#763b0f;fill-opacity:1;fill-rule:evenodd;stroke:none;stroke-width:1px;stroke-linecap:butt;stroke-linejoin:miter;stroke-opacity:1"
       d="m 668.95824,545.64606 c 0.42014,13.91716 -1.00531,26.60392 -9.09137,34.85027 -0.72481,-9.88892 -0.67338,-21.71841 0.50508,-36.3655 z"
       id="path3432-3"
       inkscape:connector-curvature="0"
       sodipodi:nodetypes="cccc"
       inkscape:export-xdpi="33.76038"
       inkscape:export-ydpi="33.76038" />
    <path
       style="fill:#6c380d;fill-opacity:1;fill-rule:evenodd;stroke:none;stroke-width:1px;stroke-linecap:butt;stroke-linejoin:miter;stroke-opacity:1"
       d="m 698.3483,909.52099 -10.71428,-5 -2.5,-11.78571 c 14.16239,-5.63307 20.02014,7.04576 13.21428,16.78571 z"
       id="path4279-0-7"
       inkscape:connector-curvature="0"
       sodipodi:nodetypes="cccc"
       inkscape:export-xdpi="33.76038"
       inkscape:export-ydpi="33.76038" />
    <path
       style="fill:#dc992e;fill-opacity:1;fill-rule:evenodd;stroke:none;stroke-width:1px;stroke-linecap:butt;stroke-linejoin:miter;stroke-opacity:1"
       d="m 709.0288,204.91116 c -10.02303,-7.76944 -14.94597,-11.77286 -25.39761,-26.06459 -46.87293,-64.09473 -121.4026,-25.56897 -126.56667,17.31459 4.16683,17.69317 1.3217,37.45845 4.39437,55.6341 29.67417,175.53032 16.16087,313.66588 8.2842,476.68733 -10.27369,53.03715 -8.52852,116.75772 -50.71429,141.42857 l -45.71428,24.28572 70,11.42857 c 71.15073,-53.39286 48.96869,-109.15411 52.85714,-167.85715 l 27.14286,172.14286 72.14286,0.71429 c -1.31426,-25.36739 -16.48426,-30.94087 -30.71429,-37.85715 -0.03,-57.62761 14.46157,-126.0036 35.21854,-185.36146 -32.58906,-17.46287 -53.54429,-104.49012 -53.63641,-142.2903 41.29483,38.0769 52.03061,-35.7 43.48905,-89.64529 -12.80846,-22.16071 -30.35686,-48.31654 -46.91178,-72.19159 6.05658,-17.70545 -14.30283,-103.82479 -38.03324,-117.01171 71.77806,9.13566 96.90664,-20.83955 131.30241,-40.6425 z"
       id="path3401"
       inkscape:connector-curvature="0"
       sodipodi:nodetypes="cscsccccccccccccccc"
       inkscape:export-xdpi="33.76038"
       inkscape:export-ydpi="33.76038" />
    <path
       style="fill:#b36e18;fill-opacity:1;fill-rule:evenodd;stroke:none;stroke-width:1px;stroke-linecap:butt;stroke-linejoin:miter;stroke-opacity:1"
       d="m 560.81451,247.05403 c 29.28572,37.14285 50.71429,43.21428 50.71429,43.21428 0,0 -43.03841,-1.53721 -42.85715,0.71428 2.41797,30.03359 30.07184,57.23969 43.92858,63.57143 -12.4082,2.63868 -36.78571,1.07142 -36.78571,1.07142 0,0 10.71428,45.71429 38.21428,63.57144 -20.71428,1.42857 -33.92857,0 -33.92857,0 -2.41727,1.3813 12.99338,58.08541 36.42857,67.49999 -19.66343,1.46972 -36.91535,-0.0978 -36.78571,-0.35714 6.43404,24.64654 13.21787,51.12849 34.28571,65.71429 -12.02381,0.79914 -23.69048,0.39085 -35.71429,-0.71428 2.27282,30.70337 14.28037,51.67201 34.64286,64.28571 -11.48488,0.64229 -22.36513,2.80948 -37.5,0.71428 6.02749,39.15089 25.6525,57.95402 37.85715,65.71429 -13.21429,2.83151 -27.5,2.62366 -40.71429,0.71428 0.35098,-66.99035 6.08323,-131.33252 6.85184,-196.82115 0.732,-62.36967 -1.77395,-144.30536 -18.63756,-238.89312 z"
       id="path4277"
       inkscape:connector-curvature="0"
       sodipodi:nodetypes="ccsccccccccccccsc"
       inkscape:export-xdpi="33.76038"
       inkscape:export-ydpi="33.76038" />
    <path
       style="fill:#6a380a;fill-opacity:1;fill-rule:evenodd;stroke:none;stroke-width:1px;stroke-linecap:butt;stroke-linejoin:miter;stroke-opacity:1"
       d="m 593.45999,189.43939 c -9.68236,21.88664 -15.82119,43.77328 -17.42513,65.65992 -50.99802,-8.75041 -53.98529,-62.75249 17.42513,-65.65992 z"
       id="path3428"
       inkscape:connector-curvature="0"
       sodipodi:nodetypes="ccc"
       inkscape:export-xdpi="33.76038"
       inkscape:export-ydpi="33.76038" />
    <path
       style="fill:#6a380a;fill-opacity:1;fill-rule:evenodd;stroke:none;stroke-width:1px;stroke-linecap:butt;stroke-linejoin:miter;stroke-opacity:1"
       d="m 683.6161,178.32771 c -34.06208,-3.5534 -32.8793,33.34665 1.01016,30.05204 10.85726,1.59753 21.13003,2.35803 23.99112,-4.04061 -9.38722,-6.80247 -17.63403,-13.9904 -25.00128,-26.01143 z"
       id="path3403"
       inkscape:connector-curvature="0"
       sodipodi:nodetypes="cccc"
       inkscape:export-xdpi="33.76038"
       inkscape:export-ydpi="33.76038" />
    <ellipse
       style="fill:#000000;fill-opacity:1;stroke:none"
       id="path3405"
       cx="-671.49432"
       cy="-192.97491"
       rx="4.0406098"
       ry="10.354064"
       transform="scale(-1,-1)"
       inkscape:export-xdpi="33.76038"
       inkscape:export-ydpi="33.76038" />
    <path
       style="fill:#6a380a;fill-opacity:1;fill-rule:evenodd;stroke:none;stroke-width:0.8974703px;stroke-linecap:butt;stroke-linejoin:miter;stroke-opacity:1"
       d="m 634.37812,215.7599 c -21.81719,2.59144 -28.67022,-12.54728 -27.91545,-17.07904 0.66339,-3.98309 -2.12069,-15.373 25.36568,-17.71348 11.18434,-0.0926 19.82323,2.61703 21.32533,17.95029 -0.25999,5.77243 -3.72171,12.74598 -18.77556,16.84223 z"
       id="path3426"
       inkscape:connector-curvature="0"
       sodipodi:nodetypes="csccc"
       inkscape:export-xdpi="33.76038"
       inkscape:export-ydpi="33.76038" />
    <ellipse
       style="fill:#000000;fill-opacity:1;stroke:none"
       id="path3405-7"
       cx="-630.58307"
       cy="-198.27823"
       rx="4.7982244"
       ry="11.111678"
       transform="scale(-1,-1)"
       inkscape:export-xdpi="33.76038"
       inkscape:export-ydpi="33.76038" />
    <path
       style="fill:#efcfa0;fill-opacity:1;fill-rule:evenodd;stroke:none;stroke-width:1px;stroke-linecap:butt;stroke-linejoin:miter;stroke-opacity:1"
       d="m 743.78146,221.18523 c -14.26979,-3.07116 -23.04862,-11.62059 -34.91154,-17.09863 -44.44501,0.18976 -43.11368,39.86234 -26.76904,54.2957 31.63602,-7.04374 55.52529,-16.74242 61.68058,-37.19707 z"
       id="path3422"
       inkscape:connector-curvature="0"
       sodipodi:nodetypes="cccc"
       inkscape:export-xdpi="33.76038"
       inkscape:export-ydpi="33.76038" />
    <path
       style="fill:#000000;fill-rule:evenodd;stroke:#000000;stroke-width:1px;stroke-linecap:butt;stroke-linejoin:miter;stroke-opacity:1"
       d="m 743.18447,221.75158 c -10.12253,1.13295 -20.34536,0.18553 -33.3044,-1.04528 4.23479,7.71798 7.72148,16.24817 20.70813,17.97803 8.49715,-7.1845 8.80729,-11.03229 12.59627,-16.93275 z"
       id="path3424"
       inkscape:connector-curvature="0"
       sodipodi:nodetypes="cccc"
       inkscape:export-xdpi="33.76038"
       inkscape:export-ydpi="33.76038" />
    <path
       style="fill:#a95b17;fill-opacity:1;fill-rule:evenodd;stroke:none;stroke-width:1px;stroke-linecap:butt;stroke-linejoin:miter;stroke-opacity:1"
       d="m 585.37876,209.64243 c -46.78503,-7.03348 -46.20041,27.58306 -8.08121,32.32489 2.5306,-12.06924 4.44112,-20.90148 8.08121,-32.32489 z"
       id="path3430"
       inkscape:connector-curvature="0"
       sodipodi:nodetypes="ccc"
       inkscape:export-xdpi="33.76038"
       inkscape:export-ydpi="33.76038" />
    <path
       style="fill:#763b0f;fill-opacity:1;fill-rule:evenodd;stroke:none;stroke-width:1px;stroke-linecap:butt;stroke-linejoin:miter;stroke-opacity:1"
       d="m 656.45823,552.96749 c -1.54415,13.73859 -1.89817,18.21106 -8.9128,26.81456 -0.72481,-9.88892 -1.92338,-20.82556 -0.74492,-35.47265 3.21924,5.01116 6.43848,6.29389 9.65772,8.65809 z"
       id="path3432-34"
       inkscape:connector-curvature="0"
       sodipodi:nodetypes="cccc"
       inkscape:export-xdpi="33.76038"
       inkscape:export-ydpi="33.76038" />
    <path
       style="fill:#6a380a;fill-opacity:1;fill-rule:evenodd;stroke:none;stroke-width:1px;stroke-linecap:butt;stroke-linejoin:miter;stroke-opacity:1"
       d="m 520.47647,869.01951 c 0.28949,14.99967 10.40371,25.63011 22.72843,36.61804 -23.70927,7.60562 -70.09305,11.9949 -83.32033,8.30329 -10.37564,-2.89574 -33.71313,-33.7279 26.75179,-39.87056 17.73434,1.20684 26.77948,-0.92076 33.84011,-5.05077 z"
       id="path3473"
       inkscape:connector-curvature="0"
       sodipodi:nodetypes="ccscc"
       inkscape:export-xdpi="33.76038"
       inkscape:export-ydpi="33.76038" />
    <path
       style="fill:#b26e18;fill-opacity:1;fill-rule:evenodd;stroke:none;stroke-width:1px;stroke-linecap:butt;stroke-linejoin:miter;stroke-opacity:1"
       d="m 661.0288,908.12545 -10.71428,-5 -0.71429,-12.14286 c 14.16239,-5.63307 18.23443,7.40291 11.42857,17.14286 z"
       id="path4279"
       inkscape:connector-curvature="0"
       sodipodi:nodetypes="cccc"
       inkscape:export-xdpi="33.76038"
       inkscape:export-ydpi="33.76038" />
    <path
       style="fill:#b26e18;fill-opacity:1;fill-rule:evenodd;stroke:none;stroke-width:1px;stroke-linecap:butt;stroke-linejoin:miter;stroke-opacity:1"
       d="m 676.56259,907.73527 -10.71429,-5 -0.71428,-12.14286 c 14.16239,-5.63307 18.23442,7.40291 11.42857,17.14286 z"
       id="path4279-2"
       inkscape:connector-curvature="0"
       sodipodi:nodetypes="cccc"
       inkscape:export-xdpi="33.76038"
       inkscape:export-ydpi="33.76038" />
    <path
       style="fill:#6c380d;fill-opacity:1;fill-rule:evenodd;stroke:none;stroke-width:1px;stroke-linecap:butt;stroke-linejoin:miter;stroke-opacity:1"
       d="m 714.41973,909.16384 -10.71428,-5 -0.71429,-12.14286 c 14.16239,-5.63307 18.23443,7.40291 11.42857,17.14286 z"
       id="path4279-0"
       inkscape:connector-curvature="0"
       sodipodi:nodetypes="cccc"
       inkscape:export-xdpi="33.76038"
       inkscape:export-ydpi="33.76038" />
    <text
       xml:space="preserve"
       style="font-style:normal;font-weight:normal;font-size:274.71014404px;line-height:125%;font-family:Sans;letter-spacing:0px;word-spacing:0px;fill:#000000;fill-opacity:1;stroke:none;stroke-width:1px;stroke-linecap:butt;stroke-linejoin:miter;stroke-opacity:1"
       x="743.16949"
       y="936.65802"
       id="text4317"
       sodipodi:linespacing="125%"
       transform="scale(1.0336996,0.96739904)"
       inkscape:export-xdpi="33.76038"
       inkscape:export-ydpi="33.76038"><tspan
         sodipodi:role="line"
         id="tspan4319"
         x="743.16949"
         y="936.65802"
         style="font-style:normal;font-variant:normal;font-weight:bold;font-stretch:normal;font-family:'Yuppy TC';-inkscape-font-specification:'Yuppy TC'">meerkat</tspan></text>
  </g>
</svg>
